<svg width="577" height="76" viewBox="0 0 577 76" fill="none" xmlns="http://www.w3.org/2000/svg">
<path d="M552.491 75.7C537.791 75.7 527.491 65 527.491 49.7C527.491 34.2 537.591 23.5 552.091 23.5C566.891 23.5 576.291 33.4 576.291 48.8C576.291 50.8451 574.636 52.5044 572.591 52.5099L539.091 52.6C539.991 61.3 544.591 65.7 552.691 65.7C557.343 65.7 560.886 64.4464 563.086 62.1065C564.834 60.2473 566.94 58.4 569.492 58.4C573.12 58.4 575.899 61.7956 574.098 64.9448C570.194 71.7702 562.521 75.7 552.491 75.7ZM552.191 33.5C544.991 33.5 540.591 37.4 539.391 44.8H564.191C564.191 38 559.491 33.5 552.191 33.5Z" fill="#FE990D"/>
<path d="M456.114 68.3C456.114 71.6689 453.383 74.4 450.014 74.4C446.645 74.4 443.914 71.6689 443.914 68.3V31.0792C443.914 27.7218 446.636 25 449.993 25C452.952 25 455.481 27.1304 455.984 30.0463L456.114 30.8C458.614 26.7 463.614 23.5 470.714 23.5C478.214 23.5 483.414 27.2 486.014 32.9C488.514 27.2 494.314 23.5 501.814 23.5C513.814 23.5 520.414 30.7 520.414 42.1V68.35C520.414 71.6913 517.705 74.4 514.364 74.4C511.023 74.4 508.314 71.6913 508.314 68.35V45.3C508.314 38.2 504.514 34.5 498.714 34.5C492.814 34.5 488.314 38.3 488.314 46.4V68.3C488.314 71.6689 485.583 74.4 482.214 74.4C478.845 74.4 476.114 71.6689 476.114 68.3V45.2C476.114 38.3 472.414 34.6 466.614 34.6C460.814 34.6 456.114 38.4 456.114 46.4V68.3Z" fill="#FE990D"/>
<path d="M383.444 49.6C383.444 34.2 394.544 23.6 409.844 23.6C425.144 23.6 436.244 34.2 436.244 49.6C436.244 65 425.144 75.6 409.844 75.6C394.544 75.6 383.444 65 383.444 49.6ZM395.644 49.6C395.644 58.6 401.444 64.7 409.844 64.7C418.244 64.7 424.044 58.6 424.044 49.6C424.044 40.6 418.244 34.5 409.844 34.5C401.444 34.5 395.644 40.6 395.644 49.6Z" fill="#FE990D"/>
<path d="M341.657 68.3C341.657 71.6689 338.926 74.4 335.557 74.4C332.188 74.4 329.457 71.6689 329.457 68.3V6.15002C329.457 2.75346 332.21 0 335.607 0C339.004 0 341.757 2.75345 341.757 6.15001V31.4C344.857 26.6 350.657 23.5 357.757 23.5C369.957 23.5 376.357 31.2 376.357 44V68.3C376.357 71.6689 373.626 74.4 370.257 74.4C366.888 74.4 364.157 71.6689 364.157 68.3V46.9C364.157 38.6 360.057 34.6 353.857 34.6C346.157 34.6 341.657 40 341.657 47.4V68.3Z" fill="#FE990D"/>
<path d="M282.398 65.1436C281.231 62.1206 283.995 59.4 287.235 59.4C290.423 59.4 292.82 62.416 295.276 64.4479C296.791 65.701 299.019 66.4 301.868 66.4C307.568 66.4 310.668 64.1 310.668 60.5C310.668 58 309.368 56.2 304.968 55.2L296.068 53.1C287.168 51.1 282.868 46.9 282.868 39C282.868 29.3 291.068 23.5 302.468 23.5C311.157 23.5 317.641 27.422 320.095 33.731C321.272 36.7581 318.517 39.5 315.269 39.5C312.099 39.5 309.779 36.5069 307.41 34.4C306.114 33.2469 304.269 32.6 301.968 32.6C297.168 32.6 294.368 34.8 294.368 38.5C294.368 41.3 296.568 43.1 300.768 44.1L309.668 46.2C317.968 48.1 322.168 51.9 322.168 59.5C322.168 69.5 313.668 75.7 301.468 75.7C291.788 75.7 284.896 71.6126 282.398 65.1436Z" fill="#3A1F65"/>
<path d="M263.344 31.1C263.344 27.7311 266.075 25 269.444 25C272.813 25 275.544 27.7311 275.544 31.1V68.3666C275.544 71.6987 272.842 74.4 269.51 74.4C266.493 74.4 263.94 72.1712 263.532 69.1817L263.344 67.8C260.344 72.5 253.944 75.7 247.344 75.7C235.944 75.7 229.244 68 229.244 55.9V31.1C229.244 27.7311 231.975 25 235.344 25C238.713 25 241.444 27.7311 241.444 31.1V51.6C241.444 61 245.144 64.8 251.944 64.8C259.644 64.8 263.344 60.3 263.344 50.9V31.1Z" fill="#3A1F65"/>
<path d="M173.963 49.6C173.963 34.3 184.063 23.5 198.663 23.5C209.319 23.5 217.296 28.1725 220.823 35.9931C222.398 39.4847 219.318 42.9 215.487 42.9C212.535 42.9 210.159 40.713 208.342 38.3853C206.286 35.7496 203.12 34.4 199.163 34.4C191.363 34.4 186.163 40.3 186.163 49.6C186.163 58.9 190.963 64.7 198.763 64.7C202.88 64.7 206.177 63.3337 208.285 60.7854C210.166 58.5123 212.543 56.3 215.493 56.3C219.346 56.3 222.392 59.7782 220.691 63.2358C216.94 70.8574 208.863 75.7 198.763 75.7C183.763 75.7 173.963 65.3 173.963 49.6Z" fill="#3A1F65"/>
<path d="M132.177 68.3C132.177 71.6689 129.445 74.4 126.077 74.4C122.708 74.4 119.977 71.6689 119.977 68.3V31.0887C119.977 27.726 122.703 25 126.065 25C129.065 25 131.618 27.1849 132.081 30.1488L132.277 31.4C135.377 26.4 141.377 23.5 148.077 23.5C160.477 23.5 166.877 31.2 166.877 44V68.3C166.877 71.6689 164.145 74.4 160.777 74.4C157.408 74.4 154.677 71.6689 154.677 68.3V46.9C154.677 38.6 150.577 34.6 144.277 34.6C136.777 34.6 132.177 39.8 132.177 47.8V68.3Z" fill="#3A1F65"/>
<path d="M103.272 15.1C99.0719 15.1 95.7719 11.8 95.7719 7.7C95.7719 3.6 99.0719 0.400001 103.272 0.400001C107.272 0.400001 110.572 3.6 110.572 7.7C110.572 11.8 107.272 15.1 103.272 15.1ZM103.272 74.4C99.9029 74.4 97.1719 71.6689 97.1719 68.3V31.1C97.1719 27.7311 99.9029 25 103.272 25C106.641 25 109.372 27.7311 109.372 31.1V68.3C109.372 71.6689 106.641 74.4 103.272 74.4Z" fill="#3A1F65"/>
<path d="M86.019 24.106C88.9299 24.1753 90.9141 26.8427 90.9141 29.7544V31.6C90.9141 34.0853 88.8993 36.1 86.4141 36.1C77.6141 36.1 72.1141 40.8 72.1141 50.4V68.3C72.1141 71.6689 69.383 74.4 66.0141 74.4C62.6451 74.4 59.9141 71.6689 59.9141 68.3V31.1288C59.9141 27.7992 62.6133 25.1 65.9429 25.1C69.0466 25.1 71.6432 27.4563 71.9435 30.5455L72.1141 32.3C74.2141 27.4 78.9141 24.1 85.5141 24.1C85.6823 24.1 85.8505 24.102 86.019 24.106Z" fill="#3A1F65"/>
<path d="M11.8536 69.0714C11.539 72.0994 8.98703 74.4 5.94272 74.4C2.66065 74.4 0 71.7394 0 68.4573V6.10001C0 2.73107 2.73106 0 6.1 0C9.46894 0 12.2 2.73106 12.2 6.1V32.2C15.4 26.7 22 23.4 29.5 23.4C43.6 23.4 52.2 34.4 52.2 50C52.2 65.2 42.9 75.7 28.7 75.7C21.3 75.7 15 72.4 12.1 66.7L11.8536 69.0714ZM12.3 49.5C12.3 58.4 17.8 64.5 26.2 64.5C34.8 64.5 39.9 58.3 39.9 49.5C39.9 40.7 34.8 34.4 26.2 34.4C17.8 34.4 12.3 40.6 12.3 49.5Z" fill="#3A1F65"/>
</svg>
